<svg width="782" height="304" viewBox="0 0 782 304" fill="none" xmlns="http://www.w3.org/2000/svg">
<path d="M165.749 94.3813V44.1453L1.22791 131.498V170.341L165.749 254.759V204.523L52.3279 151.178V149.452L165.749 94.3813Z" fill="url(#paint0_linear_2_66)"/>
<path d="M164.048 42.2883C163.723 42.2533 163.331 42.6073 163.048 42.7573C162.62 42.9843 162.196 43.1853 161.767 43.4133C161.339 43.6413 160.914 43.8733 160.486 44.1013C160.058 44.3283 159.633 44.5603 159.205 44.7883C156.207 46.3823 153.202 47.9743 150.205 49.5693C137.359 56.4043 124.515 63.2273 111.674 70.0693C86.4199 83.5253 61.1619 96.9933 35.9239 110.475C31.2179 112.989 26.5029 115.523 21.7979 118.038C18.8049 119.638 15.8229 121.219 12.8299 122.819C11.1189 123.734 9.41488 124.655 7.70488 125.569C6.42188 126.255 5.14388 126.945 3.86088 127.632C3.43388 127.861 3.00688 128.09 2.57988 128.319C2.15188 128.548 1.72588 128.778 1.29788 129.007C0.867878 129.237 0.283876 129.432 0.0798757 129.913C-0.0491243 130.216 0.0168874 130.59 0.0168874 130.913C0.0178874 131.319 0.0158874 131.726 0.0168874 132.132C0.0178874 132.538 0.0158874 132.945 0.0168874 133.351C0.0178874 133.756 0.0158874 134.164 0.0168874 134.569C0.0198874 135.787 0.0148874 136.977 0.0168874 138.194C0.0198874 139.817 0.0138874 141.446 0.0168874 143.069C0.0228874 145.91 0.042878 148.76 0.047878 151.601C0.055878 155.66 0.0708757 159.729 0.0798757 163.788C0.0828757 165.006 0.0768757 166.226 0.0798757 167.444C0.0798757 167.768 0.0418851 168.111 0.173885 168.413C0.202885 168.481 0.227887 168.574 0.266887 168.632C0.274887 168.644 0.289878 168.651 0.297878 168.663C1.02088 169.732 1.73088 170.782 2.45488 171.851C2.47588 171.882 2.49589 171.913 2.51689 171.944C2.77089 172.317 3.25389 172.496 3.64189 172.694C4.06989 172.912 4.49589 173.132 4.92389 173.351C5.35089 173.569 5.77688 173.789 6.20488 174.007C7.91388 174.88 9.65188 175.728 11.3609 176.601C16.9149 179.436 22.4629 182.297 28.0169 185.132C53.6389 198.208 79.2659 211.251 104.892 224.319C118.56 231.289 132.226 238.284 145.892 245.257C151.018 247.872 156.142 250.486 161.267 253.101C162.549 253.754 163.83 254.384 165.111 255.038C165.421 255.196 166.21 255.814 166.361 255.225C166.447 254.889 166.393 254.479 166.392 254.132C166.391 253.606 166.394 253.095 166.392 252.569C166.388 250.993 166.365 249.395 166.361 247.819C166.349 243.092 166.341 238.359 166.33 233.632C166.32 229.431 166.308 225.239 166.298 221.038C166.293 218.413 166.304 215.788 166.298 213.163C166.295 211.588 166.27 210.019 166.267 208.444C166.266 207.919 166.268 207.407 166.267 206.882C166.266 206.494 166.34 206.031 166.205 205.663C166.188 205.619 166.136 205.546 166.111 205.507C166.078 205.456 166.051 205.402 166.017 205.351C166.037 205.38 165.991 205.299 165.955 205.257C165.939 205.233 165.908 205.218 165.892 205.194C165.758 204.99 165.654 204.772 165.517 204.569C165.443 204.459 165.318 204.351 165.236 204.225C165.194 204.162 165.156 204.101 165.111 204.038C165.099 204.012 165.064 203.952 165.08 203.975C164.98 203.841 164.891 203.701 164.767 203.601C164.392 203.295 163.891 203.117 163.455 202.913C162.865 202.637 162.294 202.377 161.705 202.101C161.115 201.825 160.513 201.533 159.924 201.257C159.334 200.981 158.732 200.72 158.142 200.444C156.374 199.616 154.629 198.772 152.861 197.944C150.503 196.84 148.125 195.736 145.767 194.632C141.05 192.423 136.328 190.216 131.611 188.007C124.534 184.691 117.468 181.386 110.392 178.069C100.953 173.645 91.5179 169.214 82.0799 164.788C77.3599 162.574 72.6429 160.378 67.9239 158.163C65.5629 157.055 63.1899 155.927 60.8299 154.819C58.4689 153.711 56.1279 152.615 53.7669 151.507C53.4619 151.363 53.1289 151.228 52.8299 151.069C52.8329 150.831 52.7979 150.596 52.7359 150.351C52.7389 150.343 52.7329 150.327 52.7359 150.319C52.9879 149.616 53.8079 149.4 54.4239 149.101C57.3739 147.662 60.3479 146.226 63.2979 144.788C66.2499 143.35 69.1909 141.912 72.1419 140.475C77.4559 137.889 82.7659 135.28 88.0799 132.694C97.5269 128.098 106.975 123.507 116.424 118.913C128.235 113.171 140.048 107.434 151.861 101.694C154.814 100.259 157.783 98.8173 160.736 97.3823C161.327 97.0953 161.895 96.8253 162.486 96.5383C163.077 96.2513 162.505 96.5413 166.048 94.8193C166.603 95.6323 167.164 96.4823 167.174 96.4753C167.173 94.9053 167.1 95.2133 167.174 94.9133C167.298 94.4053 167.174 93.8743 167.174 93.3513C167.173 92.8273 167.174 92.2803 167.174 91.7573C167.173 89.1403 167.174 86.5303 167.174 83.9133C167.172 73.9683 167.175 64.0143 167.174 54.0693C167.173 53.0223 167.174 51.9913 167.174 50.9443C167.173 50.4213 167.174 49.9053 167.174 49.3823C167.173 48.8583 167.174 48.3123 167.174 47.7883C167.173 47.4433 167.277 46.8933 167.08 46.6013C167.067 46.5813 167.061 46.5573 167.048 46.5383C166.131 45.1793 165.189 43.8323 164.267 42.4753C164.254 42.4563 164.249 42.4323 164.236 42.4133C164.194 42.3523 164.121 42.2963 164.048 42.2883ZM164.33 47.7253C164.33 47.9333 164.33 48.1433 164.33 48.3513C164.329 52.0133 164.33 55.6573 164.33 59.3193C164.329 66.6443 164.331 73.9633 164.33 81.2883C164.329 83.3813 164.33 85.4763 164.33 87.5693C164.33 88.6163 164.33 87.5793 164.33 92.2883C164.321 92.2943 164.9 93.1193 165.455 93.9443C163.682 94.8043 164.2 94.3683 163.674 94.8193C163.175 95.2473 162.514 95.3763 161.924 95.6633C160.151 96.5233 158.384 97.3973 156.611 98.2573C152.475 100.264 148.341 102.281 144.205 104.288C127.07 112.602 109.907 120.89 92.7669 129.194C83.3099 133.776 73.8519 138.368 64.3919 142.944C60.8449 144.66 57.3149 146.384 53.7669 148.101C53.1599 148.394 52.6529 148.713 52.3299 149.194C52.2309 148.984 52.1139 148.811 51.9859 148.944C51.5869 149.36 51.8459 150.104 51.9859 150.663C52.2109 151.002 52.3919 151.988 52.6739 151.694C52.6809 151.687 52.6669 151.671 52.6739 151.663C52.7469 151.58 52.7369 151.455 52.7669 151.351C52.7809 151.368 52.7859 151.396 52.7979 151.413C52.8039 151.425 52.8229 151.432 52.8299 151.444C52.8429 151.463 52.8479 151.488 52.8609 151.507C52.8799 151.534 52.9059 151.575 52.9239 151.601C53.2549 152.082 53.9449 152.267 54.4549 152.507C55.0459 152.785 55.6129 153.072 56.2049 153.351C59.7529 155.022 63.3129 156.71 66.8609 158.382C76.9169 163.122 86.9619 167.858 97.0169 172.601C112.405 179.858 127.791 187.115 143.174 194.382C148.502 196.899 153.845 199.427 159.174 201.944C160.95 202.783 162.71 203.605 164.486 204.444C164.731 204.56 164.991 204.669 165.236 204.788C165.235 204.829 165.236 204.872 165.236 204.913C165.235 205.569 165.206 206.225 165.205 206.882C165.202 208.447 165.208 210.004 165.205 211.569C165.19 217.828 165.188 224.092 165.174 230.351C165.16 236.086 165.126 241.834 165.111 247.569C165.11 248.091 165.112 248.611 165.111 249.132C165.108 250.174 165.114 251.214 165.111 252.257C165.11 252.609 165.245 253.189 165.017 253.475C164.767 253.791 164.094 253.299 163.83 253.163C162.97 252.719 162.096 252.263 161.236 251.819C157.798 250.045 154.361 248.281 150.924 246.507C136.311 238.966 121.691 231.425 107.08 223.882C83.4399 211.678 59.8159 199.455 36.1739 187.257C28.0099 183.045 19.8379 178.841 11.6739 174.632C9.09589 173.303 6.53188 171.961 3.95488 170.632C3.43788 170.366 2.90889 170.117 2.39189 169.851C2.39189 169.768 2.39189 169.683 2.39189 169.601C2.39389 168.794 2.38989 168.001 2.39189 167.194C2.39689 165.178 2.38789 163.148 2.39189 161.132C2.40689 154.677 2.41089 148.243 2.42389 141.788C2.42689 139.771 2.45088 137.743 2.45488 135.725C2.45588 135.322 2.45388 134.91 2.45488 134.507C2.45488 134.228 2.41588 133.933 2.48588 133.663C2.63288 133.094 3.26688 132.878 3.73588 132.632C4.16488 132.406 4.58789 132.17 5.01689 131.944C7.16389 130.814 9.30888 129.701 11.4549 128.569C19.1809 124.496 26.9169 120.425 34.6419 116.351C66.8279 99.3743 98.9889 82.3563 131.142 65.3193C140.144 60.5493 149.173 55.7803 158.174 51.0073C160.234 49.9143 162.269 48.8183 164.33 47.7253Z" fill="#00FFA7"/>
<path d="M381.543 130.807C379.126 88.5123 346.498 57.4383 295.398 57.4383C238.946 57.4383 202.693 95.4173 202.693 155.667C202.693 216.78 238.946 254.069 295.743 254.069C345.635 254.069 378.78 225.929 381.715 181.735H334.759C331.478 202.624 317.495 214.19 296.261 214.19C270.193 214.19 253.793 192.783 253.793 155.667C253.793 119.241 270.193 97.1443 296.088 97.1443C318.013 97.1443 331.824 111.127 334.586 130.807H381.543Z" fill="url(#paint1_linear_2_66)"/>
<path d="M298.736 55.4753C284.661 54.9433 270.387 56.7502 257.174 61.7572C250.651 64.2282 244.416 67.4683 238.705 71.4753C234.712 74.2773 230.959 77.4573 227.548 80.9443C206.812 102.143 200.145 132.55 201.642 161.382C202.265 173.374 204.434 185.33 208.642 196.601C210.944 202.766 214.045 208.471 217.517 214.007C216.242 211.81 215.066 209.556 213.986 207.257C211.028 200.959 208.798 194.338 207.205 187.569C204.887 177.727 203.908 167.609 203.924 157.507C203.942 145.861 205.313 134.15 208.548 122.944C213.885 104.462 224.525 87.6613 240.205 76.2883C257.008 64.1003 277.828 59.2362 298.361 59.5072C319.851 59.7902 341.768 65.9492 358.142 80.3512C360.902 82.7782 363.471 85.4083 365.83 88.2253C366.604 89.1503 367.354 90.1063 368.08 91.0693C368.314 91.3803 368.538 91.6932 368.767 92.0072C368.974 92.3372 369.191 92.6732 369.392 93.0072C370.226 94.3862 371.03 95.7933 371.767 97.2253C373.646 100.874 375.203 104.693 376.455 108.601C377.742 112.618 378.702 116.742 379.33 120.913C379.588 122.626 379.773 124.344 379.924 126.069C379.962 126.507 379.924 126.096 380.111 128.725C380.102 128.732 380.682 129.557 381.236 130.382C379.876 130.376 380.177 130.249 379.798 130.382C379.337 130.544 378.819 130.382 378.33 130.382C376.862 130.381 375.391 130.382 373.924 130.382C368.542 130.381 363.148 130.383 357.767 130.382C351.897 130.381 346.044 130.383 340.174 130.382C338.706 130.381 337.235 130.382 335.767 130.382C335.434 130.382 335.062 130.424 334.736 130.351C334.72 130.24 334.724 130.117 334.705 130.007C334.562 129.206 334.41 128.427 334.236 127.632C333.731 125.318 333.042 123.023 332.174 120.819C329.596 114.281 325.295 108.26 319.642 104.038C308.976 96.0713 293.121 94.4833 280.892 99.4753C275.898 101.514 271.431 104.717 267.798 108.694C262.165 114.861 258.592 122.629 256.424 130.632C253.777 140.4 253.071 150.707 253.548 160.788C253.993 170.18 255.562 179.66 259.267 188.351C263.855 199.111 271.861 208.618 283.111 212.601C286.462 213.787 289.975 214.499 293.517 214.757C306.868 215.727 320.624 211.535 328.548 200.194C331.214 196.38 333.086 192.029 334.267 187.538C334.591 186.306 334.834 185.068 335.08 183.819C335.175 183.335 335.143 182.708 335.736 182.569C336.061 182.493 336.434 182.537 336.767 182.538C337.257 182.539 337.746 182.537 338.236 182.538C338.726 182.539 339.215 182.537 339.705 182.538C342.155 182.545 344.598 182.562 347.048 182.569C354.89 182.591 362.738 182.607 370.58 182.632C371.56 182.635 372.537 182.66 373.517 182.663C374.498 182.666 375.474 182.66 376.455 182.663C376.945 182.665 377.464 182.661 377.955 182.663C378.935 182.666 379.912 182.66 380.892 182.663C380.903 182.663 380.913 182.663 380.924 182.663C380.901 182.956 380.89 183.247 380.861 183.538C380.729 184.88 380.556 186.204 380.361 187.538C379.734 191.834 378.784 196.082 377.486 200.225C373.704 212.299 366.834 223.3 357.392 231.757C338.632 248.56 312.354 253.929 287.798 252.475C278.039 251.898 268.336 250.12 259.111 246.851C248.322 243.027 238.304 237.108 229.955 229.257C227.098 226.571 224.417 223.677 221.986 220.601C226.213 226.384 230.909 231.764 236.517 236.288C257.347 253.089 285.639 257.812 311.674 254.475C331.375 251.951 350.646 243.885 364.048 228.851C367.268 225.239 370.09 221.271 372.486 217.069C375.58 211.643 377.922 205.784 379.548 199.757C380.58 195.937 381.341 192.058 381.83 188.132C382.026 186.554 382.351 184.842 382.298 183.225C382.294 183.074 382.25 182.973 382.174 182.851C382.182 182.863 382.155 182.832 382.142 182.819C381.769 182.263 381.393 181.718 381.017 181.163C381.001 181.139 380.971 181.124 380.955 181.101C380.929 181.063 380.918 181.013 380.892 180.975C380.663 180.643 379.962 180.787 379.611 180.788C379.123 180.79 378.63 180.786 378.142 180.788C377.166 180.791 376.212 180.816 375.236 180.819C374.748 180.821 374.255 180.818 373.767 180.819C372.791 180.822 371.806 180.816 370.83 180.819C362.043 180.848 353.242 180.889 344.455 180.913C342.014 180.92 339.583 180.906 337.142 180.913C336.654 180.914 336.162 180.912 335.674 180.913C335.287 180.914 334.803 180.846 334.455 181.038C334.045 181.264 334.064 181.822 333.986 182.225C333.905 182.65 333.854 183.084 333.767 183.507C333.682 183.924 333.582 184.342 333.486 184.757C333.026 186.748 332.429 188.72 331.705 190.632C329.476 196.516 325.885 201.812 320.924 205.725C315.219 210.225 308.128 212.558 300.955 213.257C289.021 214.418 277.401 211.491 268.767 202.851C261.46 195.537 257.771 185.397 255.861 175.413C254.441 167.988 253.994 160.368 254.205 152.819C254.486 142.741 256.029 132.521 259.986 123.194C264.847 111.735 273.427 102.363 285.705 99.0072C289.63 97.9342 293.705 97.5272 297.767 97.6322C302.752 97.7602 307.724 98.6462 312.361 100.507C320.457 103.756 327.017 109.934 330.674 117.851C331.989 120.699 332.974 123.693 333.642 126.757C333.729 127.153 333.816 127.546 333.892 127.944C333.969 128.346 334.039 128.761 334.111 129.163C334.164 129.458 334.128 129.815 334.298 130.069C334.307 130.081 334.322 130.089 334.33 130.101C334.488 130.338 334.669 130.583 334.83 130.819C334.85 130.85 334.871 130.883 334.892 130.913C334.905 130.932 334.91 130.957 334.924 130.975C334.999 131.084 335.144 131.156 335.267 131.194C335.606 131.3 336.008 131.257 336.361 131.257C336.85 131.257 337.341 131.257 337.83 131.257C338.319 131.257 338.778 131.257 339.267 131.257C341.224 131.256 343.186 131.257 345.142 131.257C353.456 131.255 361.765 131.227 370.08 131.225C372.525 131.225 374.978 131.226 377.424 131.225C377.913 131.225 378.403 131.226 378.892 131.225C379.376 131.225 378.967 131.226 381.798 131.225C382.371 132.066 382.945 132.919 382.955 132.913C382.861 131.598 382.815 131.82 382.861 131.601C382.951 131.17 382.805 130.726 382.767 130.288C382.654 128.99 382.505 127.672 382.33 126.382C381.592 120.945 380.33 115.584 378.486 110.413C376.234 104.099 373.03 98.3463 369.33 92.7883C369.348 92.8533 369.227 92.6502 369.205 92.6322C369.077 92.4402 368.99 92.2293 368.861 92.0383C368.659 91.7403 368.439 91.4603 368.236 91.1633C365.879 87.7253 363.453 84.3833 360.611 81.3193C353.431 73.5813 344.578 67.5393 334.924 63.3193C323.537 58.3423 311.121 55.9443 298.736 55.4753ZM221.986 220.601C221.403 219.863 220.793 219.046 220.236 218.288C219.98 217.94 219.738 217.576 219.486 217.225C219.478 217.214 219.463 217.206 219.455 217.194C218.8 216.135 218.143 215.085 217.517 214.007C218.166 215.04 218.71 216.114 219.392 217.132C219.529 217.335 219.63 217.554 219.767 217.757C220.445 218.756 221.276 219.629 221.986 220.601Z" fill="#00FFA7"/>
<path d="M511.882 301.371L584.389 1.50427H537.432L465.788 301.371H511.882Z" fill="url(#paint2_linear_2_66)"/>
<path d="M580.455 0.0382581C578.504 0.0472581 576.561 0.0602639 574.611 0.0692639C565.834 0.110264 557.075 0.154264 548.298 0.194264C545.373 0.208264 542.443 0.21227 539.517 0.22527C539.03 0.22827 538.536 0.22327 538.048 0.22527C537.564 0.22827 536.806 0.104246 536.517 0.601246C536.38 0.836246 536.361 1.14826 536.298 1.41326C536.206 1.80526 536.109 2.20825 536.017 2.60125C535.649 4.17025 535.292 5.75026 534.924 7.31926C533.819 12.0273 532.715 16.7373 531.611 21.4443C527.93 37.1333 524.234 52.8193 520.548 68.5073C508.496 119.817 496.392 171.103 484.205 222.382C479.559 241.926 474.891 261.464 470.236 281.007C469.026 286.086 467.822 291.178 466.611 296.257C466.518 296.647 466.423 297.022 466.33 297.413C466.143 298.194 465.954 298.976 465.767 299.757C465.703 300.026 465.506 300.475 465.674 300.725C465.681 300.737 465.697 300.745 465.705 300.757C465.738 300.808 465.765 300.862 465.798 300.913C465.95 301.139 466.082 301.376 466.236 301.601C466.254 301.627 466.212 301.538 466.205 301.507C466.263 301.572 466.286 301.677 466.361 301.725C466.665 301.921 467.167 301.819 467.517 301.819C467.997 301.819 468.475 301.82 468.955 301.819C469.435 301.819 469.912 301.819 470.392 301.819C473.273 301.818 476.168 301.82 479.048 301.819C486.73 301.817 494.399 301.79 502.08 301.788C504 301.788 505.941 301.788 507.861 301.788C508.341 301.788 508.818 301.788 509.298 301.788C509.773 301.788 509.365 301.789 512.142 301.788C512.715 302.628 513.289 303.482 513.298 303.475C513.582 302.304 513.397 302.531 513.58 302.288C513.821 301.967 513.767 301.522 513.861 301.132C513.955 300.741 514.048 300.335 514.142 299.944C514.614 297.991 515.108 296.053 515.58 294.101C517.75 285.118 519.91 276.114 522.08 267.132C530.765 231.179 539.417 195.223 548.048 159.257C553.684 135.775 559.313 112.307 564.924 88.8193C569.884 68.0513 574.857 47.2793 579.798 26.5073C581.105 21.0173 582.401 15.5283 583.705 10.0383C584.077 8.46926 584.457 6.88826 584.83 5.31926C584.923 4.92726 585.018 4.55526 585.111 4.16326C585.173 3.90026 585.334 3.55326 585.267 3.28826C585.255 3.23926 585.233 3.17325 585.205 3.13225C584.541 2.14925 583.874 1.17426 583.205 0.194264C582.994 -0.113736 582.25 0.0362581 581.924 0.0382581C581.436 0.0402581 580.942 0.0362581 580.455 0.0382581ZM539.767 2.75725C540.258 2.75925 540.745 2.78626 541.236 2.78826C543.689 2.79926 546.126 2.80826 548.58 2.81926C556.921 2.85826 565.27 2.87526 573.611 2.91326C576.064 2.92426 578.533 2.93326 580.986 2.94426C581.649 2.94726 582.156 2.97327 582.674 2.97527C582.533 3.54627 582.376 4.12426 582.236 4.69426C581.662 7.02626 581.091 9.36226 580.517 11.6943C578.606 19.4703 576.709 27.2313 574.798 35.0073C569.16 57.9623 563.532 80.9203 557.924 103.882C546.69 149.871 535.519 195.874 524.361 241.882C521.143 255.151 517.917 268.423 514.705 281.694C513.76 285.598 512.837 289.509 511.892 293.413C511.609 294.584 511.301 295.773 511.017 296.944C510.923 297.335 511.022 296.946 510.455 299.288C510.446 299.294 511.025 300.119 511.58 300.944C510.139 300.944 510.522 300.808 510.142 300.944C509.69 301.107 509.185 300.944 508.705 300.944C508.225 300.944 507.747 300.945 507.267 300.944C505.346 300.944 503.438 300.945 501.517 300.944C493.834 300.942 486.138 300.946 478.455 300.944C475.573 300.944 472.68 300.945 469.798 300.944C468.838 300.944 467.884 300.945 466.924 300.944C466.715 300.944 466.508 300.917 466.298 300.913C466.301 300.903 466.296 300.892 466.298 300.882C466.412 300.408 466.529 299.949 466.642 299.475C467.016 297.914 467.393 296.349 467.767 294.788C469.262 288.545 470.771 282.312 472.267 276.069C476.38 258.907 480.49 241.729 484.611 224.569C496.957 173.159 509.347 121.759 521.83 70.3823C525.891 53.6673 529.952 36.9703 534.017 20.2573C535.057 15.9823 536.102 11.6883 537.142 7.41326C537.237 7.02426 537.329 6.64525 537.424 6.25725C537.518 5.86825 537.61 5.48925 537.705 5.10125C537.799 4.71225 537.892 4.30226 537.986 3.91326C538.067 3.57826 538.095 3.13126 538.392 2.91326C538.753 2.64726 539.343 2.75525 539.767 2.75725Z" fill="#00FFA7"/>
<path d="M616.671 94.2093L729.92 149.452V151.178L616.671 204.35V254.587L781.193 170.341V131.325L616.671 44.1453V94.2093Z" fill="url(#paint3_linear_2_66)"/>
<path d="M616.548 43.9753C616.249 44.1393 616.361 44.7603 616.361 45.0383C616.361 45.6333 616.361 46.2553 616.361 46.8513C616.361 47.3723 616.361 47.8913 616.361 48.4133C616.361 48.9353 616.361 49.4543 616.361 49.9753C616.361 51.0193 616.361 52.0573 616.361 53.1013C616.361 55.1873 616.392 57.2643 616.392 59.3513C616.393 64.0453 616.392 68.7503 616.392 73.4443C616.393 77.6173 616.392 81.7713 616.392 85.9443C616.392 87.5093 616.392 89.0983 616.392 90.6633C616.392 90.9973 616.392 91.9533 616.392 92.6633C615.931 92.4383 616.397 92.6523 615.267 92.1013C615.256 92.1083 615.859 93.0673 616.642 94.2253C617.426 95.3843 618.068 96.3273 618.08 96.3193C619.849 97.1823 618.931 96.5303 619.861 97.1633C620.404 97.5323 621.053 97.7503 621.642 98.0383C622.232 98.3263 622.803 98.5943 623.392 98.8823C625.161 99.7443 626.936 100.613 628.705 101.475C633.423 103.776 638.143 106.081 642.861 108.382C659.369 116.432 675.881 124.493 692.392 132.538C701.234 136.846 710.081 141.139 718.924 145.444C721.786 146.838 724.655 148.238 727.517 149.632C725.53 150.622 723.493 151.561 721.486 152.507C715.004 155.562 708.528 158.604 702.048 161.663C682.611 170.839 663.167 180.034 643.736 189.225C637.26 192.289 630.773 195.346 624.298 198.413C621.944 199.528 619.59 200.642 617.236 201.757C616.724 201.999 616.097 202.208 615.736 202.663C615.397 203.091 615.485 203.652 615.486 204.163C615.487 204.688 615.485 205.232 615.486 205.757C615.487 206.282 615.485 206.794 615.486 207.319C615.487 207.844 615.485 208.357 615.486 208.882C615.499 214.657 615.535 220.45 615.548 226.225C615.559 230.952 615.568 235.687 615.58 240.413C615.584 241.989 615.576 243.556 615.58 245.132C615.582 246.182 615.577 247.237 615.58 248.288C615.581 248.813 615.578 249.325 615.58 249.851C615.581 250.376 615.61 250.919 615.611 251.444C615.612 251.789 615.477 252.34 615.674 252.632C615.686 252.651 615.692 252.675 615.705 252.694C616.396 253.719 617.103 254.735 617.798 255.757C617.803 255.764 617.794 255.781 617.798 255.788C617.807 255.8 617.822 255.807 617.83 255.819C617.871 255.881 617.945 255.935 618.017 255.944C618.34 255.984 618.736 255.653 619.017 255.507C619.444 255.286 619.871 255.072 620.298 254.851C622.434 253.744 624.569 252.644 626.705 251.538C628.841 250.432 630.975 249.301 633.111 248.194C636.955 246.202 640.799 244.218 644.642 242.225C653.184 237.797 661.726 233.373 670.267 228.944C685.214 221.193 700.162 213.44 715.111 205.694C731.769 197.063 748.42 188.417 765.08 179.788C769.352 177.575 773.65 175.373 777.924 173.163C778.351 172.942 778.777 172.728 779.205 172.507C779.632 172.286 780.059 172.072 780.486 171.851C780.915 171.628 781.47 171.421 781.674 170.944C781.803 170.641 781.768 170.268 781.767 169.944C781.766 169.536 781.737 169.133 781.736 168.725C781.733 167.502 781.739 166.293 781.736 165.069C781.728 161.4 781.712 157.708 781.705 154.038C781.698 150.777 781.711 147.518 781.705 144.257C781.701 142.219 781.677 140.201 781.674 138.163C781.672 137.348 781.675 136.509 781.674 135.694C781.673 135.287 781.674 134.883 781.674 134.475C781.673 134.068 781.674 133.664 781.674 133.257C781.673 132.975 781.712 132.655 781.642 132.382C781.617 132.282 781.575 132.186 781.517 132.101C781.504 132.081 781.499 132.057 781.486 132.038C781.339 131.82 781.196 131.599 781.048 131.382C780.898 131.159 780.731 130.947 780.58 130.725C780.567 130.706 780.562 130.682 780.548 130.663C780.297 130.295 779.805 130.146 779.424 129.944C778.996 129.719 778.57 129.482 778.142 129.257C777.715 129.031 777.289 128.795 776.861 128.569C776.006 128.118 775.153 127.677 774.298 127.225C772.588 126.322 770.884 125.41 769.174 124.507C766.18 122.926 763.167 121.369 760.174 119.788C755.469 117.303 750.784 114.805 746.08 112.319C724.253 100.787 702.432 89.2383 680.611 77.6943C668.622 71.3523 656.629 65.0093 644.642 58.6633C640.36 56.3963 636.081 54.1493 631.798 51.8823C629.229 50.5213 626.649 49.1493 624.08 47.7883C622.795 47.1083 621.521 46.4373 620.236 45.7573C619.808 45.5303 619.383 45.2963 618.955 45.0693C618.466 44.8103 617.975 44.5473 617.486 44.2883C617.257 44.1673 616.817 43.8293 616.548 43.9753ZM617.236 44.8193C617.562 44.7843 617.985 45.1073 618.267 45.2573C618.696 45.4843 619.12 45.7173 619.548 45.9443C619.977 46.1713 620.401 46.4043 620.83 46.6323C621.258 46.8593 621.682 47.0923 622.111 47.3193C625.54 49.1373 628.963 50.9383 632.392 52.7573C645.253 59.5793 658.127 66.4003 670.986 73.2253C695.439 86.2053 719.884 99.2033 744.33 112.194C749.051 114.703 753.765 117.216 758.486 119.725C761.491 121.323 764.513 122.909 767.517 124.507C769.663 125.648 771.808 126.772 773.955 127.913C775.243 128.598 776.511 129.29 777.798 129.975C778.657 130.432 779.534 130.894 780.392 131.351C780.496 131.406 780.6 131.453 780.705 131.507C780.704 132.016 780.706 132.529 780.705 133.038C780.702 134.254 780.707 135.478 780.705 136.694C780.703 137.505 780.706 138.321 780.705 139.132C780.702 140.753 780.677 142.355 780.674 143.975C780.668 146.812 780.679 149.67 780.674 152.507C780.666 156.558 780.651 160.612 780.642 164.663C780.639 165.878 780.645 167.073 780.642 168.288C780.642 168.61 780.679 168.988 780.548 169.288C780.342 169.763 779.76 169.945 779.33 170.163C778.9 170.381 778.478 170.602 778.048 170.819C775.901 171.908 773.759 172.981 771.611 174.069C763.449 178.207 755.276 182.344 747.111 186.475C715.739 202.351 684.363 218.236 652.986 234.101C644.389 238.447 635.799 242.781 627.205 247.132C624.627 248.437 622.033 249.733 619.455 251.038C618.887 251.325 618.335 251.626 617.767 251.913C617.768 251.767 617.767 251.621 617.767 251.475C617.774 248.869 617.761 246.27 617.767 243.663C617.791 234.276 617.808 224.894 617.83 215.507C617.832 214.464 617.859 213.394 617.861 212.351C617.862 211.829 617.86 211.31 617.861 210.788C617.862 210.266 617.86 209.747 617.861 209.225C617.863 208.133 617.492 206.324 618.705 205.725C621.352 204.418 624.059 203.221 626.736 201.975C630.874 200.05 635.005 198.12 639.142 196.194C651.554 190.419 663.954 184.638 676.361 178.851C685.222 174.717 694.095 170.581 702.955 166.444C710.042 163.135 717.119 159.82 724.205 156.507C725.976 155.679 727.746 154.866 729.517 154.038C730.232 153.704 730.702 153.356 730.986 152.819C731.099 152.936 731.174 153.088 731.298 153.194C731.738 153.567 731.546 151.996 731.298 151.475C730.389 150.126 729.79 148.497 728.548 147.444C728.444 147.356 728.464 147.603 728.424 147.694C728.389 147.644 728.364 147.588 728.33 147.538C728.22 147.377 728.084 147.239 727.924 147.132C727.573 146.897 727.146 146.754 726.767 146.569C726.177 146.281 725.608 145.983 725.017 145.694C724.427 145.406 723.826 145.108 723.236 144.819C720.284 143.377 717.344 141.949 714.392 140.507C709.671 138.199 704.927 135.876 700.205 133.569C691.943 129.534 683.686 125.51 675.424 121.475C660.675 114.274 645.924 107.079 631.174 99.8823C627.634 98.1553 624.088 96.4223 620.548 94.6943C619.959 94.4063 619.388 94.1383 618.798 93.8513C618.491 93.7003 617.373 93.1483 616.955 92.9443C617.094 92.4953 616.955 91.9863 616.955 91.5073C616.955 90.9853 616.955 90.4663 616.955 89.9443C616.955 87.8593 616.955 85.7803 616.955 83.6943C616.956 74.3093 616.953 64.9233 616.955 55.5383C616.955 52.4103 616.954 49.2913 616.955 46.1633C616.955 45.8533 616.796 44.8663 617.236 44.8193Z" fill="#00FFA7"/>
<defs>
<linearGradient id="paint0_linear_2_66" x1="-72.7708" y1="125.117" x2="826.453" y2="125.117" gradientUnits="userSpaceOnUse">
<stop stop-color="#C500FF"/>
<stop offset="1" stop-color="#00FFB8"/>
</linearGradient>
<linearGradient id="paint1_linear_2_66" x1="-72.7708" y1="125.117" x2="826.453" y2="125.117" gradientUnits="userSpaceOnUse">
<stop stop-color="#C500FF"/>
<stop offset="1" stop-color="#00FFB8"/>
</linearGradient>
<linearGradient id="paint2_linear_2_66" x1="-72.7709" y1="125.117" x2="826.453" y2="125.117" gradientUnits="userSpaceOnUse">
<stop stop-color="#C500FF"/>
<stop offset="1" stop-color="#00FFB8"/>
</linearGradient>
<linearGradient id="paint3_linear_2_66" x1="-72.7707" y1="125.117" x2="826.453" y2="125.117" gradientUnits="userSpaceOnUse">
<stop stop-color="#C500FF"/>
<stop offset="1" stop-color="#00FFB8"/>
</linearGradient>
</defs>
</svg>
